<svg width="231" height="51" viewBox="0 0 231 51" fill="none" xmlns="http://www.w3.org/2000/svg">
<path d="M0.616 49V46.888C1.896 46.888 2.87733 46.5467 3.56 45.864C4.24267 45.1813 4.79733 44.2427 5.224 43.048C5.69333 41.8533 6.22667 40.4667 6.824 38.888L20.008 2.984H21.544L35.816 39.4C36.1573 40.296 36.5413 41.448 36.968 42.856C37.3947 44.264 37.5653 45.4587 37.48 46.44C38.2053 46.3973 38.9307 46.3547 39.656 46.312C40.3813 46.2693 41.1067 46.2267 41.832 46.184V49H27.176V46.888C28.7973 46.8453 29.864 46.4827 30.376 45.8C30.888 45.1173 31.08 44.3067 30.952 43.368C30.824 42.4293 30.6107 41.576 30.312 40.808L28.072 34.792L11.432 35.176L9.192 42.024C8.89333 43.048 8.616 43.8587 8.36 44.456C8.14667 45.0533 7.89067 45.7147 7.592 46.44C8.44533 46.3973 9.27733 46.3547 10.088 46.312C10.9413 46.2693 11.7733 46.2267 12.584 46.184V49H0.616ZM12.392 32.424H27.176L22.632 20.2C22.1627 18.8773 21.672 17.576 21.16 16.296C20.6907 14.9733 20.2213 13.6507 19.752 12.328H19.624C19.1973 13.5227 18.7493 14.7173 18.28 15.912C17.8533 17.1067 17.4053 18.3227 16.936 19.56L12.392 32.424ZM43.8785 49V47.08C45.2012 47.08 46.1185 46.76 46.6305 46.12C47.1425 45.4373 47.4412 44.52 47.5265 43.368C47.6118 42.1733 47.6545 40.808 47.6545 39.272L47.7185 24.68C47.7185 23.9973 47.7185 23.3147 47.7185 22.632C47.7612 21.9493 47.8465 21.2453 47.9745 20.52C47.2065 20.5627 46.4385 20.6053 45.6705 20.648C44.9452 20.6907 44.1985 20.7333 43.4305 20.776V18.088C45.3078 18.088 46.7158 18.0027 47.6545 17.832C48.6358 17.6613 49.3612 17.448 49.8305 17.192C50.2998 16.936 50.6838 16.6587 50.9825 16.36H52.8385C52.9238 16.8293 52.9665 17.384 52.9665 18.024C53.0092 18.6213 53.0518 19.368 53.0945 20.264C54.4598 19.0267 56.0812 18.0027 57.9585 17.192C59.8358 16.3813 61.6918 15.976 63.5265 15.976C67.2385 15.976 69.9478 17.1493 71.6545 19.496C73.3612 21.8 74.2145 25.4053 74.2145 30.312V42.216C74.2145 43.0693 74.1932 43.8373 74.1505 44.52C74.1505 45.16 74.0865 45.8427 73.9585 46.568C74.6412 46.5253 75.3025 46.504 75.9425 46.504C76.6252 46.4613 77.3078 46.4187 77.9905 46.376V49H64.9345V47.08C66.2572 47.08 67.1745 46.76 67.6865 46.12C68.1985 45.4373 68.4972 44.52 68.5825 43.368C68.6678 42.1733 68.7105 40.808 68.7105 39.272V30.312C68.6678 26.6427 68.0492 23.8693 66.8545 21.992C65.7025 20.1147 63.8678 19.1973 61.3505 19.24C59.8145 19.2827 58.2998 19.688 56.8065 20.456C55.3558 21.224 54.1398 22.2053 53.1585 23.4C53.2012 23.7413 53.2225 24.1253 53.2225 24.552C53.2225 24.9787 53.2225 25.4267 53.2225 25.896L53.1585 42.216C53.1585 43.0693 53.1372 43.8373 53.0945 44.52C53.0945 45.16 53.0305 45.8427 52.9025 46.568C53.5852 46.5253 54.2465 46.504 54.8865 46.504C55.5692 46.4613 56.2518 46.4187 56.9345 46.376V49H43.8785ZM94.223 50.024C93.2417 50.024 92.239 49.8747 91.215 49.576C90.191 49.32 89.231 48.7867 88.335 47.976C87.4817 47.1653 86.799 45.992 86.287 44.456C85.775 42.8773 85.519 40.808 85.519 38.248L85.647 19.688L80.719 19.752V17C81.8283 16.9573 82.959 16.552 84.111 15.784C85.263 14.9733 86.287 13.8853 87.183 12.52C88.1217 11.1547 88.7617 9.66133 89.103 8.04H91.279V17H102.031V19.496L91.279 19.624L91.151 37.416C91.151 40.3173 91.5137 42.536 92.239 44.072C93.007 45.608 94.2657 46.376 96.015 46.376C97.2097 46.376 98.319 46.0347 99.343 45.352C100.41 44.6693 101.348 43.7307 102.159 42.536L103.887 43.944C102.65 45.8213 101.412 47.1867 100.175 48.04C98.9803 48.8933 97.871 49.4267 96.847 49.64C95.823 49.896 94.9483 50.024 94.223 50.024ZM106.941 47.08C108.264 47.08 109.181 46.76 109.693 46.12C110.205 45.4373 110.504 44.52 110.589 43.368C110.674 42.1733 110.717 40.808 110.717 39.272V24.68C110.717 23.9973 110.738 23.3573 110.781 22.76C110.824 22.12 110.888 21.3733 110.973 20.52C110.205 20.5627 109.437 20.6053 108.669 20.648C107.944 20.6907 107.197 20.7333 106.429 20.776V18.088C108.306 18.088 109.757 18.0027 110.781 17.832C111.805 17.6613 112.573 17.448 113.085 17.192C113.64 16.936 114.066 16.6587 114.365 16.36H116.221V42.216C116.221 43.0693 116.2 43.8373 116.157 44.52C116.157 45.16 116.093 45.8427 115.965 46.568C116.648 46.5253 117.309 46.504 117.949 46.504C118.632 46.4613 119.314 46.4187 119.997 46.376V49H106.941V47.08ZM113.149 10.024C112.253 10.024 111.464 9.66133 110.781 8.936C110.098 8.21067 109.757 7.31467 109.757 6.248C109.757 5.18133 110.098 4.28533 110.781 3.56C111.506 2.792 112.317 2.408 113.213 2.408C114.194 2.408 115.005 2.792 115.645 3.56C116.328 4.28533 116.669 5.18133 116.669 6.248C116.669 7.31467 116.306 8.21067 115.581 8.936C114.898 9.66133 114.088 10.024 113.149 10.024ZM140.813 50.024C137.826 50.024 135.117 49.3413 132.685 47.976C130.253 46.568 128.312 44.648 126.861 42.216C125.453 39.7413 124.749 36.9253 124.749 33.768C124.749 30.3973 125.453 27.368 126.861 24.68C128.269 21.992 130.189 19.88 132.621 18.344C135.053 16.7653 137.784 15.976 140.813 15.976C143.8 15.976 146.509 16.7013 148.941 18.152C151.373 19.56 153.314 21.48 154.765 23.912C156.216 26.344 156.941 29.1173 156.941 32.232C156.941 35.5173 156.216 38.5253 154.765 41.256C153.357 43.944 151.437 46.0773 149.005 47.656C146.573 49.2347 143.842 50.024 140.813 50.024ZM141.325 47.464C143.586 47.464 145.378 46.824 146.701 45.544C148.024 44.264 148.962 42.6 149.517 40.552C150.114 38.504 150.413 36.3493 150.413 34.088C150.413 32.168 150.221 30.2907 149.837 28.456C149.496 26.5787 148.941 24.8933 148.173 23.4C147.405 21.864 146.402 20.648 145.165 19.752C143.97 18.856 142.52 18.408 140.813 18.408C138.594 18.408 136.781 19.048 135.373 20.328C133.965 21.608 132.92 23.272 132.237 25.32C131.597 27.368 131.277 29.5653 131.277 31.912C131.277 34.5573 131.64 37.0747 132.365 39.464C133.09 41.8107 134.2 43.7307 135.693 45.224C137.186 46.7173 139.064 47.464 141.325 47.464ZM177.995 50.024C175.136 50.024 172.491 49.384 170.059 48.104C167.669 46.7813 165.749 44.904 164.299 42.472C162.891 39.9973 162.187 37.032 162.187 33.576C162.187 31.3573 162.592 29.2027 163.403 27.112C164.213 25.0213 165.344 23.144 166.795 21.48C168.288 19.7733 170.059 18.4293 172.107 17.448C174.155 16.4667 176.416 15.976 178.891 15.976C181.28 15.976 183.349 16.3387 185.099 17.064C186.891 17.7893 188.277 18.7493 189.259 19.944C190.24 21.1387 190.731 22.44 190.731 23.848C190.731 24.7867 190.475 25.5973 189.963 26.28C189.451 26.92 188.704 27.24 187.723 27.24C186.656 27.2827 185.888 26.9627 185.419 26.28C184.992 25.5547 184.779 24.9147 184.779 24.36C184.779 23.9333 184.843 23.5067 184.971 23.08C185.099 22.6107 185.355 22.184 185.739 21.8C185.397 20.776 184.8 20.0293 183.947 19.56C183.093 19.048 182.197 18.728 181.259 18.6C180.363 18.4293 179.616 18.344 179.019 18.344C176.117 18.344 173.664 19.5173 171.659 21.864C169.696 24.168 168.715 27.5387 168.715 31.976C168.715 34.8347 169.163 37.3733 170.059 39.592C170.997 41.8107 172.299 43.56 173.963 44.84C175.627 46.0773 177.547 46.696 179.723 46.696C181.728 46.696 183.648 46.1627 185.483 45.096C187.317 44.0293 188.747 42.728 189.771 41.192L191.435 42.472C190.325 44.264 188.981 45.7147 187.403 46.824C185.867 47.9333 184.267 48.744 182.603 49.256C180.981 49.768 179.445 50.024 177.995 50.024ZM216.985 47.08C218.308 47.08 219.225 46.76 219.737 46.12C220.249 45.4373 220.548 44.52 220.633 43.368C220.718 42.1733 220.761 40.808 220.761 39.272V30.312C220.761 26.6427 220.164 23.8907 218.969 22.056C217.817 20.2213 215.982 19.3253 213.465 19.368C211.886 19.4107 210.329 19.7947 208.793 20.52C207.3 21.2453 206.084 22.184 205.145 23.336V42.216C205.145 43.0693 205.124 43.8373 205.081 44.52C205.038 45.16 204.953 45.8427 204.825 46.568C205.508 46.5253 206.169 46.504 206.809 46.504C207.492 46.4613 208.174 46.4187 208.857 46.376V49H195.801V47.08C197.124 47.08 198.041 46.76 198.553 46.12C199.065 45.4373 199.364 44.52 199.449 43.368C199.577 42.1733 199.641 40.808 199.641 39.272V9C199.641 8.31733 199.641 7.67733 199.641 7.08C199.684 6.44 199.748 5.69333 199.833 4.84C199.065 4.88266 198.297 4.92533 197.529 4.968C196.804 5.01066 196.057 5.05333 195.289 5.096V2.408C197.166 2.408 198.617 2.32266 199.641 2.152C200.708 1.98133 201.497 1.768 202.009 1.512C202.564 1.256 202.99 0.978664 203.289 0.679996H205.145V20.2C206.553 19.0053 208.196 18.0027 210.073 17.192C211.95 16.3813 213.806 15.976 215.641 15.976C219.353 15.976 222.02 17.1493 223.641 19.496C225.305 21.8 226.158 25.4053 226.201 30.312L226.265 42.216C226.265 43.0693 226.244 43.8373 226.201 44.52C226.201 45.16 226.137 45.8427 226.009 46.568C226.692 46.5253 227.353 46.504 227.993 46.504C228.676 46.4613 229.358 46.4187 230.041 46.376V49H216.985V47.08Z" fill="white"/>
</svg>
