<svg width="246" height="49" viewBox="0 0 246 49" fill="none" xmlns="http://www.w3.org/2000/svg">
<path d="M35.392 36.032H10.432L5.056 48H0.128L20.608 3.2H25.28L45.76 48H40.768L35.392 36.032ZM33.664 32.192L22.912 8.128L12.16 32.192H33.664ZM69.363 14.08C73.587 14.08 76.9363 15.3173 79.411 17.792C81.9283 20.224 83.187 23.7867 83.187 28.48V48H78.643V28.928C78.643 25.4293 77.7683 22.7627 76.019 20.928C74.2697 19.0933 71.7737 18.176 68.531 18.176C64.9043 18.176 62.0243 19.264 59.891 21.44C57.8003 23.5733 56.755 26.5387 56.755 30.336V48H52.211V14.336H56.563V20.544C57.8003 18.496 59.507 16.9173 61.683 15.808C63.9017 14.656 66.4617 14.08 69.363 14.08ZM113.252 45.952C112.398 46.72 111.332 47.3173 110.052 47.744C108.814 48.128 107.513 48.32 106.148 48.32C102.99 48.32 100.558 47.4667 98.8515 45.76C97.1448 44.0533 96.2915 41.6427 96.2915 38.528V18.176H90.2755V14.336H96.2915V6.976H100.836V14.336H111.076V18.176H100.836V38.272C100.836 40.2773 101.326 41.8133 102.308 42.88C103.332 43.904 104.782 44.416 106.66 44.416C107.598 44.416 108.494 44.2667 109.348 43.968C110.244 43.6693 111.012 43.2427 111.652 42.688L113.252 45.952ZM121.524 14.336H126.068V48H121.524V14.336ZM123.828 6.976C122.889 6.976 122.1 6.656 121.46 6.016C120.82 5.376 120.5 4.608 120.5 3.712C120.5 2.85867 120.82 2.112 121.46 1.472C122.1 0.831997 122.889 0.511997 123.828 0.511997C124.766 0.511997 125.556 0.831997 126.196 1.472C126.836 2.06933 127.156 2.79466 127.156 3.648C127.156 4.58667 126.836 5.376 126.196 6.016C125.556 6.656 124.766 6.976 123.828 6.976ZM152.471 48.32C149.228 48.32 146.306 47.5947 143.703 46.144C141.1 44.6507 139.052 42.6027 137.559 40C136.066 37.3973 135.319 34.4533 135.319 31.168C135.319 27.8827 136.066 24.9387 137.559 22.336C139.052 19.7333 141.1 17.7067 143.703 16.256C146.306 14.8053 149.228 14.08 152.471 14.08C155.714 14.08 158.636 14.8053 161.239 16.256C163.842 17.7067 165.868 19.7333 167.319 22.336C168.812 24.9387 169.559 27.8827 169.559 31.168C169.559 34.4533 168.812 37.3973 167.319 40C165.868 42.6027 163.842 44.6507 161.239 46.144C158.636 47.5947 155.714 48.32 152.471 48.32ZM152.471 44.288C154.86 44.288 156.994 43.7547 158.871 42.688C160.791 41.5787 162.284 40.0213 163.351 38.016C164.418 36.0107 164.951 33.728 164.951 31.168C164.951 28.608 164.418 26.3253 163.351 24.32C162.284 22.3147 160.791 20.7787 158.871 19.712C156.994 18.6027 154.86 18.048 152.471 18.048C150.082 18.048 147.927 18.6027 146.007 19.712C144.13 20.7787 142.636 22.3147 141.527 24.32C140.46 26.3253 139.927 28.608 139.927 31.168C139.927 33.728 140.46 36.0107 141.527 38.016C142.636 40.0213 144.13 41.5787 146.007 42.688C147.927 43.7547 150.082 44.288 152.471 44.288ZM192.788 48.32C189.46 48.32 186.473 47.5947 183.828 46.144C181.225 44.6933 179.177 42.6667 177.684 40.064C176.191 37.4187 175.444 34.4533 175.444 31.168C175.444 27.8827 176.191 24.9387 177.684 22.336C179.177 19.7333 181.225 17.7067 183.828 16.256C186.473 14.8053 189.46 14.08 192.788 14.08C195.689 14.08 198.271 14.656 200.532 15.808C202.836 16.9173 204.649 18.56 205.972 20.736L202.58 23.04C201.471 21.376 200.063 20.1387 198.356 19.328C196.649 18.4747 194.793 18.048 192.788 18.048C190.356 18.048 188.159 18.6027 186.196 19.712C184.276 20.7787 182.761 22.3147 181.652 24.32C180.585 26.3253 180.052 28.608 180.052 31.168C180.052 33.7707 180.585 36.0747 181.652 38.08C182.761 40.0427 184.276 41.5787 186.196 42.688C188.159 43.7547 190.356 44.288 192.788 44.288C194.793 44.288 196.649 43.8827 198.356 43.072C200.063 42.2613 201.471 41.024 202.58 39.36L205.972 41.664C204.649 43.84 202.836 45.504 200.532 46.656C198.228 47.7653 195.647 48.32 192.788 48.32ZM231.551 14.08C235.775 14.08 239.124 15.3173 241.599 17.792C244.116 20.224 245.375 23.7867 245.375 28.48V48H240.831V28.928C240.831 25.4293 239.956 22.7627 238.207 20.928C236.457 19.0933 233.961 18.176 230.719 18.176C227.092 18.176 224.212 19.264 222.079 21.44C219.988 23.5733 218.943 26.5387 218.943 30.336V48H214.399V0.511997H218.943V20.224C220.18 18.2613 221.887 16.7467 224.062 15.68C226.239 14.6133 228.735 14.08 231.551 14.08Z" fill="white"/>
</svg>
